<?xml version="1.0" standalone="no"?>
<!DOCTYPE svg PUBLIC "-//W3C//DTD SVG 20010904//EN"
 "http://www.w3.org/TR/2001/REC-SVG-20010904/DTD/svg10.dtd">
<svg version="1.0" xmlns="http://www.w3.org/2000/svg"
 width="260.000000pt" height="260.000000pt" viewBox="0 0 260.000000 260.000000"
 preserveAspectRatio="xMidYMid meet">
<metadata>
Created by potrace 1.11, written by Peter Selinger 2001-2013
</metadata>
<g transform="translate(0.000000,260.000000) scale(0.100000,-0.100000)"
fill="#000000" stroke="none">
<path d="M630 2063 c0 -3 14 -28 31 -54 33 -53 137 -154 223 -219 30 -23 63
-56 74 -73 10 -18 36 -41 58 -52 44 -24 86 -90 105 -168 10 -42 9 -50 -6 -68
-10 -10 -15 -22 -11 -27 4 -4 18 5 30 21 12 15 24 27 28 27 3 0 31 -25 61 -55
33 -31 57 -49 60 -42 3 9 8 9 18 0 7 -7 24 -13 38 -13 23 0 24 1 6 20 -10 11
-24 20 -30 20 -15 0 -40 28 -32 36 14 14 83 -40 121 -96 36 -52 41 -66 38
-105 -3 -30 -9 -45 -18 -45 -8 0 -14 4 -14 8 0 12 -59 44 -70 37 -6 -3 -10 -2
-10 4 0 5 -18 12 -40 16 -22 4 -50 15 -62 25 -36 27 -103 35 -134 15 -14 -9
-32 -14 -39 -11 -8 3 -17 1 -20 -4 -4 -6 -26 -10 -50 -10 -24 0 -68 -5 -97
-12 l-53 -11 70 -15 c39 -7 77 -19 85 -26 8 -7 40 -25 71 -40 54 -27 57 -30
63 -74 7 -55 1 -65 -24 -32 -19 25 -19 25 -33 5 -11 -14 -12 -26 -6 -44 5 -13
7 -26 4 -29 -5 -6 -55 45 -55 56 0 12 -62 35 -97 37 -18 0 -33 -4 -33 -10 0
-5 -4 -4 -9 4 -11 18 -34 4 -27 -16 4 -11 2 -13 -9 -9 -8 3 -15 0 -15 -6 0 -7
-5 -6 -15 2 -13 10 -19 10 -35 -5 -10 -9 -16 -23 -13 -31 4 -10 0 -12 -11 -8
-12 5 -15 2 -10 -10 6 -16 -2 -20 -43 -16 -32 2 -42 -43 -18 -84 l18 -31 -26
24 c-15 14 -27 19 -27 13 0 -6 4 -13 9 -17 6 -3 6 -17 -1 -35 -7 -23 -7 -34 2
-45 7 -9 10 -18 7 -21 -3 -3 -11 3 -18 14 -7 11 -19 18 -26 15 -7 -3 -13 0
-13 6 0 6 -5 11 -11 11 -5 0 -9 -8 -8 -17 2 -10 -7 -38 -18 -63 l-21 -45 -11
28 c-14 36 -56 36 -55 0 0 -13 -3 -23 -8 -23 -4 0 -8 -9 -8 -20 0 -11 -6 -20
-13 -20 -13 0 -21 -13 -58 -93 -7 -15 -17 -26 -23 -24 -28 10 -46 -14 -46 -61
0 -27 -4 -52 -9 -58 -4 -5 -17 -34 -27 -64 -10 -30 -24 -64 -31 -75 -7 -11
-13 -29 -13 -40 0 -15 -2 -17 -9 -6 -7 11 -13 9 -30 -8 -11 -11 -21 -31 -21
-43 0 -21 0 -21 27 3 19 17 24 19 20 7 -3 -9 -1 -18 6 -21 13 -4 11 -74 -2
-92 -5 -5 -11 -25 -14 -42 l-6 -33 208 0 209 0 17 27 c15 23 16 31 6 57 -23
56 -21 59 59 86 73 24 75 26 78 60 4 50 21 87 47 104 21 14 55 68 55 87 0 5
20 51 44 102 55 115 83 203 90 283 8 85 32 135 51 105 10 -18 9 -139 -1 -152
-20 -25 -24 -92 -9 -113 8 -11 15 -28 15 -38 0 -10 5 -18 10 -18 19 0 10 -36
-29 -112 -21 -42 -42 -90 -46 -108 -4 -17 -34 -77 -67 -133 -79 -133 -104
-179 -112 -211 l-6 -26 193 0 193 0 68 137 c37 75 83 174 102 220 18 46 42 96
52 111 18 25 52 122 66 184 6 26 137 168 155 168 5 0 15 7 22 16 8 9 32 25 54
34 24 11 58 40 85 73 25 30 65 70 91 88 45 34 60 54 101 139 33 69 47 264 25
354 -16 64 -55 134 -93 167 -57 50 -155 106 -204 118 -30 8 -67 20 -82 27 -15
8 -43 14 -62 14 -24 0 -44 8 -62 25 -31 28 -79 31 -79 5 -1 -28 -25 -60 -50
-66 -14 -3 -29 -13 -34 -21 -5 -10 -23 -16 -50 -16 -36 0 -41 -3 -41 -22 0
-28 48 -64 60 -45 6 9 9 9 13 -1 3 -10 13 -5 33 17 16 17 44 36 62 44 61 24
209 12 219 -19 3 -9 13 -24 21 -33 8 -10 15 -29 15 -44 0 -26 23 -64 40 -64 5
0 39 -18 75 -39 67 -39 116 -93 154 -170 22 -43 22 -51 1 -123 -15 -51 -33
-77 -33 -48 0 21 -20 9 -21 -12 l0 -23 -9 23 c-10 22 -19 27 -55 22 -11 -1
-36 -3 -55 -4 -18 -2 -36 -8 -38 -15 -3 -9 -7 -9 -19 0 -12 10 -16 10 -23 -1
-5 -8 -7 -19 -4 -25 3 -5 -1 -1 -8 9 -26 39 -49 56 -73 56 -20 0 -24 5 -22 22
1 17 -8 27 -43 44 -54 26 -100 73 -130 132 -13 25 -29 42 -39 42 -10 0 -24 12
-32 28 -16 32 -78 125 -88 132 -21 15 -49 63 -44 76 3 8 1 14 -3 14 -5 0 -9
16 -10 34 -1 40 -35 75 -72 76 -13 0 -37 9 -54 21 -16 12 -32 18 -35 15 -4 -3
-1 -6 5 -6 7 0 12 -4 12 -10 0 -17 -22 -12 -95 24 -370 179 -355 172 -355 159z
m363 -175 c57 -31 155 -120 138 -126 -18 -6 -241 142 -249 166 -5 16 29 3 111
-40z m394 -788 c21 -11 42 -20 48 -20 6 0 16 -19 23 -43 7 -24 23 -52 34 -61
23 -20 85 -24 117 -7 37 20 51 14 51 -23 0 -19 -4 -38 -10 -41 -5 -3 -10 -1
-10 5 0 7 -11 2 -25 -11 -19 -18 -25 -34 -25 -66 0 -32 -5 -45 -20 -53 -11 -6
-20 -18 -21 -28 0 -11 -2 -13 -6 -4 -4 10 -8 8 -18 -5 -15 -20 -17 -17 -29 40
-5 19 -12 27 -24 25 -12 -2 -18 5 -20 27 -2 17 -9 37 -16 45 -7 8 -16 23 -19
33 -4 9 -14 20 -24 24 -35 14 -63 47 -63 75 0 16 -7 31 -15 34 -17 7 -21 34
-5 34 6 0 10 9 10 20 0 11 7 20 15 20 8 0 32 -9 52 -20z m-96 -46 c6 -7 4 -16
-5 -23 -11 -9 -15 -7 -19 9 -3 11 -2 30 1 43 6 21 6 21 10 2 2 -11 8 -25 13
-31z m569 6 c0 -11 -5 -20 -10 -20 -6 0 -15 -11 -20 -25 -6 -15 -15 -23 -24
-19 -8 3 -17 0 -21 -5 -3 -6 -11 -9 -16 -5 -5 3 -7 10 -3 15 3 5 10 7 15 4 5
-4 9 -1 9 4 0 12 51 71 63 71 4 0 7 -9 7 -20z m-119 -96 c-5 -16 -10 -23 -10
-17 -1 8 -11 11 -31 7 -22 -5 -30 -3 -30 8 0 10 11 15 32 15 18 0 34 5 36 12
9 26 11 4 3 -25z"/>
<path d="M1438 1744 c-34 -18 -39 -45 -17 -90 13 -25 69 -54 105 -54 39 0 82
35 79 63 -9 79 -95 121 -167 81z m102 -24 c0 -5 -6 -10 -14 -10 -8 0 -18 5
-21 10 -3 6 3 10 14 10 12 0 21 -4 21 -10z"/>
<path d="M127 123 c-4 -3 -7 -13 -7 -21 0 -12 3 -12 15 -2 8 7 15 16 15 21 0
11 -14 12 -23 2z"/>
</g>
</svg>
